<?xml version="1.0" encoding="utf-8"?>
<!-- Generator: Adobe Illustrator 25.4.1, SVG Export Plug-In . SVG Version: 6.00 Build 0)  -->
<svg version="1.1" id="Layer_1" xmlns="http://www.w3.org/2000/svg" xmlns:xlink="http://www.w3.org/1999/xlink" x="0px" y="0px"
	 viewBox="0 0 150 100" style="enable-background:new 0 0 150 100;" xml:space="preserve">
<style type="text/css">
	.st0{fill:#6188FF;}
	.st1{fill:#FFA300;}
	.st2{fill:#FF515C;}
	.st3{fill:#509D9B;}
</style>
<g>
	<path class="st0" d="M23,42.2C22.7,39.9,21,23.9,21,23.9c-0.1-0.8,0.1-1.6,0.6-2.2c0.5-0.6,1.2-1,2-1.1c0,0,27.1-3.1,33.3-3.9
		c2.3-0.3,7.3-3.7,4-9.5c-1.3-2.3-4.4-2.9-6.8-2.5c-2.4,0.3-43,5.2-43,5.2c-1.3,0.2-3.1,1.1-3.9,2.7c-0.6,1.1-0.9,2.7-0.6,3.9
		c0,0,5.7,25.4,6.3,27.3c0.5,1.9,2.8,4.6,6,3.8C22.1,46.7,23.2,44.5,23,42.2z"/>
	<g>
		<path class="st1" d="M75,16.3l22.2,29.8c1.7,2.3,5,2.7,7.2,0.8c0,0,35-30.7,36.7-32.6c1.5-1.7,3-4,1.1-7.1
			c-1.5-2.4-4.1-3.8-7.8-1.5l-28.7,19.5c-1.7,1.1-4.4,0.7-6.1-0.8L81.8,9.1C80.7,8.3,79.3,8,78,8.3l0,0C74.4,9,72.8,13.4,75,16.3z"
			/>
	</g>
	<g>
		<path class="st2" d="M41.4,50.6C37.5,52.4,8.7,65.8,8.7,65.8C6.2,67,5.8,69.1,8,70.4c0,0,40.5,23.1,43,23.5
			c4.2,0.7,6.5-4.3,3.3-7.3L34.6,70.4c-1.2-1-1.1-2.4,0.1-3.4c0,0,12.4-9.9,12.4-9.9c1.2-0.9,2.6-3.5,1.3-5.5
			C47.1,49.6,45.3,48.8,41.4,50.6z"/>
	</g>
	<g>
		<path class="st3" d="M82.4,54c-5,6.1-16.8,20.8-21.7,26.9c-1.2,1.5-1.5,3.9-1,5c0.4,1.1,1.2,2.6,2.3,4.8c1.2,2.3,3.8,2.5,5.3,0.4
			l13.4-18.2c1.3-1.8,3.5-1.8,4.8,0.1l13.9,20c1.3,1.8,3.6,1.8,4.9,0.1l13.9-17.8c1.4-1.8,3.6-1.6,4.8,0.3l12.6,17.3
			c2,2.7,4.6,1.7,5.7-0.7l1.8-3.8c0.7-1.7,0.5-3.9-0.4-5.3l-17.7-26.4c-1.2-1.8-3.3-2.2-4.7-0.7l-14.5,16.2c-1.3,1.4-3.8,1.1-5-0.4
			L86.9,54C85.6,52.4,83.7,52.4,82.4,54z"/>
	</g>
</g>
</svg>
